<?xml version="1.0" standalone="no"?>
<!DOCTYPE svg PUBLIC "-//W3C//DTD SVG 20010904//EN"
 "http://www.w3.org/TR/2001/REC-SVG-20010904/DTD/svg10.dtd">
<svg version="1.0" xmlns="http://www.w3.org/2000/svg"
 width="256.000000pt" height="256.000000pt" viewBox="0 0 256.000000 256.000000"
 preserveAspectRatio="xMidYMid meet">

<g transform="translate(0.000000,256.000000) scale(0.100000,-0.100000)"
fill="#ffffffff" stroke="none">
<path d="M625 1720 c-4 -18 -19 -37 -39 -50 -40 -24 -103 -91 -133 -140 -41
-68 -63 -177 -47 -237 12 -45 24 -22 24 45 0 88 12 128 60 199 36 53 106 121
115 111 6 -5 -142 -748 -149 -756 -3 -3 -6 2 -6 11 0 9 -4 17 -9 17 -18 0 -20
-16 -5 -45 10 -19 14 -51 12 -98 -3 -77 12 -100 34 -51 10 22 10 28 0 32 -13
4 -16 50 -4 68 4 6 25 14 47 17 80 13 211 133 293 270 55 92 103 212 124 315
31 149 15 234 -54 285 -36 27 -127 33 -190 14 -46 -14 -48 -14 -48 4 0 30 -18
22 -25 -11z m241 -25 c69 -45 82 -142 40 -309 -42 -165 -139 -332 -253 -436
-81 -74 -176 -115 -168 -72 2 9 38 193 81 409 l76 392 42 15 c82 30 138 30
182 1z"/>
<path d="M1470 1678 c-29 -46 -61 -155 -108 -358 -95 -411 -119 -557 -89 -548
7 3 13 24 14 49 2 48 47 271 94 469 22 91 43 152 81 227 36 71 51 114 52 144
1 53 -17 61 -44 17z m5 -73 c-9 -26 -19 -44 -21 -42 -2 2 4 25 13 50 9 25 19
44 21 42 3 -3 -3 -25 -13 -50z"/>
<path d="M1880 1680 c-12 -16 -34 -67 -49 -113 -26 -78 -29 -82 -59 -85 -37
-4 -37 -5 -17 68 17 63 19 90 6 90 -5 0 -17 -35 -28 -77 l-19 -78 -124 -5
c-92 -4 -125 -8 -128 -19 -4 -11 17 -13 117 -9 81 3 121 1 121 -6 0 -6 -10
-56 -22 -111 -22 -104 -39 -135 -90 -161 -39 -20 -48 -18 -48 15 0 44 -17 81
-37 81 -23 -1 -79 -58 -86 -88 -9 -36 12 -81 40 -88 18 -5 31 0 52 20 15 14
39 26 53 26 14 0 37 9 52 21 31 24 32 19 12 -66 -30 -124 -77 -407 -72 -422
10 -25 39 5 32 33 -7 26 36 262 99 544 25 111 45 203 45 206 0 2 16 4 36 4 27
0 35 -4 31 -14 -10 -26 -106 -451 -109 -481 -5 -57 15 -40 51 46 42 97 78 152
94 146 7 -2 15 -20 18 -41 3 -21 13 -44 21 -53 14 -13 19 -13 46 1 30 16 122
132 122 155 0 23 -19 9 -49 -37 -36 -57 -88 -108 -98 -98 -5 4 -13 26 -18 48
-15 57 -37 69 -71 38 -14 -14 -33 -38 -41 -53 -8 -16 -17 -27 -19 -24 -9 8 64
303 83 336 l18 31 175 -1 c96 0 174 3 173 8 -4 14 -115 24 -225 20 -60 -3
-108 -3 -108 -2 0 2 14 35 30 74 48 113 42 193 -10 121z m-1 -84 c-12 -31 -24
-54 -27 -52 -2 3 6 30 18 61 29 73 37 65 9 -9z m-369 -387 c0 -17 -4 -28 -10
-24 -5 3 -10 17 -10 31 0 13 5 24 10 24 6 0 10 -14 10 -31z m-23 -46 c22 -17
8 -45 -19 -41 -25 3 -33 26 -23 66 6 25 7 26 17 7 6 -11 17 -25 25 -32z"/>
<path d="M1290 1528 c-20 -32 -56 -141 -81 -240 -11 -46 -13 -48 -46 -48 -23
0 -33 -4 -30 -12 2 -7 14 -12 26 -11 22 3 22 3 5 -27 -25 -42 -89 -110 -104
-110 -10 0 -11 16 -7 60 3 33 1 62 -3 65 -5 3 -23 -13 -41 -35 -39 -48 -64
-54 -55 -12 3 15 8 37 12 50 4 13 2 22 -4 22 -35 0 -43 -122 -9 -128 11 -2 32
9 48 24 l29 28 -6 -31 c-7 -36 10 -73 33 -73 10 0 42 26 72 57 29 32 51 49 48
38 -9 -28 -55 -241 -78 -360 -22 -118 -25 -169 -6 -163 7 3 15 33 19 76 4 39
26 156 48 259 63 287 52 260 110 268 62 9 65 25 5 25 -25 0 -45 3 -45 7 0 4
23 53 52 109 36 72 51 115 52 145 1 53 -17 61 -44 17z m4 -82 c-9 -26 -19 -45
-22 -42 -2 3 3 26 13 51 22 60 30 53 9 -9z"/>
</g>
</svg>
